<?xml version="1.0" encoding="UTF-8"?>
<!DOCTYPE svg PUBLIC "-//W3C//DTD SVG 1.1//EN" "http://www.w3.org/Graphics/SVG/1.1/DTD/svg11.dtd">
<svg xmlns="http://www.w3.org/2000/svg" version="1.1" width="512px" height="512px" style="shape-rendering:geometricPrecision; text-rendering:geometricPrecision; image-rendering:optimizeQuality; fill-rule:evenodd; clip-rule:evenodd" xmlns:xlink="http://www.w3.org/1999/xlink">
<g><path style="opacity:1" fill="#1d1d1f" d="M 52.5,-0.5 C 187.833,-0.5 323.167,-0.5 458.5,-0.5C 487.176,6.17555 504.842,23.8422 511.5,52.5C 511.5,187.833 511.5,323.167 511.5,458.5C 504.824,487.176 487.158,504.842 458.5,511.5C 323.167,511.5 187.833,511.5 52.5,511.5C 23.8245,504.824 6.15779,487.158 -0.5,458.5C -0.5,323.167 -0.5,187.833 -0.5,52.5C 6.17555,23.8245 23.8422,6.15779 52.5,-0.5 Z"/></g>
<g><path style="opacity:1" fill="#f2f2f2" d="M 372.5,212.5 C 360.249,213.114 348.249,212.447 336.5,210.5C 332.974,197.146 324.308,189.646 310.5,188C 294.665,184.173 281.165,188.006 270,199.5C 265.256,209.466 267.09,217.966 275.5,225C 296.501,234.446 317.835,243.113 339.5,251C 377.445,267.386 388.278,294.552 372,332.5C 363.433,344.045 352.267,352.212 338.5,357C 316.571,362.581 294.571,362.915 272.5,358C 243.366,349.213 227.366,329.713 224.5,299.5C 224.5,298.167 224.5,296.833 224.5,295.5C 236.167,295.5 247.833,295.5 259.5,295.5C 260.49,312.305 269.157,322.805 285.5,327C 302.125,330.617 317.791,328.284 332.5,320C 339.139,313.544 341.306,305.71 339,296.5C 337.92,294.004 336.586,291.67 335,289.5C 332.5,287.667 330,285.833 327.5,284C 303.623,274.593 279.956,264.593 256.5,254C 234.229,242.628 224.729,224.461 228,199.5C 232.309,181.189 243.142,168.355 260.5,161C 285.397,152.67 310.397,152.337 335.5,160C 358.526,169.874 370.859,187.374 372.5,212.5 Z"/></g>
<g><path style="opacity:1" fill="#808081" d="M 175.5,158.5 C 163.5,158.5 151.5,158.5 139.5,158.5C 139.5,224.833 139.5,291.167 139.5,357.5C 138.501,291.002 138.168,224.335 138.5,157.5C 151.011,157.171 163.345,157.505 175.5,158.5 Z"/></g>
<g><path style="opacity:1" fill="#f2f2f2" d="M 175.5,158.5 C 175.5,224.833 175.5,291.167 175.5,357.5C 163.5,357.5 151.5,357.5 139.5,357.5C 139.5,291.167 139.5,224.833 139.5,158.5C 151.5,158.5 163.5,158.5 175.5,158.5 Z"/></g>
<g><path style="opacity:1" fill="#b8b8b9" d="M 336.5,210.5 C 348.249,212.447 360.249,213.114 372.5,212.5C 360.678,213.495 348.678,213.828 336.5,213.5C 336.5,212.5 336.5,211.5 336.5,210.5 Z"/></g>
<g><path style="opacity:1" fill="#6d6d6e" d="M 259.5,295.5 C 247.833,295.5 236.167,295.5 224.5,295.5C 224.5,296.833 224.5,298.167 224.5,299.5C 223.549,298.081 223.216,296.415 223.5,294.5C 235.678,294.172 247.678,294.505 259.5,295.5 Z"/></g>
</svg>
