<?xml version="1.0" encoding="UTF-8"?>
<!DOCTYPE svg PUBLIC "-//W3C//DTD SVG 1.1//EN" "http://www.w3.org/Graphics/SVG/1.1/DTD/svg11.dtd">
<svg xmlns="http://www.w3.org/2000/svg" version="1.1" width="512px" height="512px" style="shape-rendering:geometricPrecision; text-rendering:geometricPrecision; image-rendering:optimizeQuality; fill-rule:evenodd; clip-rule:evenodd" xmlns:xlink="http://www.w3.org/1999/xlink">
<g><path style="opacity:0.997" fill="#0065cc" d="M 233.5,-0.5 C 248.167,-0.5 262.833,-0.5 277.5,-0.5C 377.769,12.0418 449.269,64.0418 492,155.5C 502.296,180.684 508.796,206.684 511.5,233.5C 511.5,248.167 511.5,262.833 511.5,277.5C 498.958,377.769 446.958,449.269 355.5,492C 330.316,502.296 304.316,508.796 277.5,511.5C 262.833,511.5 248.167,511.5 233.5,511.5C 133.231,498.958 61.7312,446.958 19,355.5C 8.70393,330.316 2.20393,304.316 -0.5,277.5C -0.5,262.833 -0.5,248.167 -0.5,233.5C 12.0418,133.231 64.0418,61.7312 155.5,19C 180.684,8.70393 206.684,2.20393 233.5,-0.5 Z"/></g>
<g><path style="opacity:1" fill="#ecedef" d="M 330.5,127.5 C 333.518,127.335 336.518,127.502 339.5,128C 355.033,141.866 369.533,156.699 383,172.5C 383.79,175.634 383.457,178.634 382,181.5C 375.5,188 369,194.5 362.5,201C 361.5,201.667 360.5,201.667 359.5,201C 343,184.5 326.5,168 310,151.5C 309.333,150.5 309.333,149.5 310,148.5C 317.036,141.632 323.869,134.632 330.5,127.5 Z"/></g>
<g><path style="opacity:1" fill="#efefef" d="M 295.5,162.5 C 313.915,179.413 331.915,196.913 349.5,215C 300.5,264 251.5,313 202.5,362C 181.908,369.198 161.241,376.198 140.5,383C 132.922,384.695 128.589,381.695 127.5,374C 133.928,352.714 140.762,331.548 148,310.5C 197.368,261.299 246.535,211.965 295.5,162.5 Z"/></g>
</svg>
