<?xml version="1.0" encoding="UTF-8"?>
<!DOCTYPE svg PUBLIC "-//W3C//DTD SVG 1.1//EN" "http://www.w3.org/Graphics/SVG/1.1/DTD/svg11.dtd">
<svg xmlns="http://www.w3.org/2000/svg" version="1.1" width="558px" height="512px" style="shape-rendering:geometricPrecision; text-rendering:geometricPrecision; image-rendering:optimizeQuality; fill-rule:evenodd; clip-rule:evenodd" xmlns:xlink="http://www.w3.org/1999/xlink">
<g><path style="opacity:0.986" fill="#333333" d="M 275.5,-0.5 C 290.5,-0.5 305.5,-0.5 320.5,-0.5C 415.407,9.34474 485.573,56.0114 531,139.5C 545.786,169.991 554.62,201.991 557.5,235.5C 557.5,247.833 557.5,260.167 557.5,272.5C 549.9,361.891 508.233,430.391 432.5,478C 399.75,496.529 364.75,507.696 327.5,511.5C 312.5,511.5 297.5,511.5 282.5,511.5C 209.043,503.526 149.21,470.86 103,413.5C 98.5757,407.658 94.9091,401.324 92,394.5C 88.939,379.793 94.439,369.626 108.5,364C 116.479,362.344 123.812,363.677 130.5,368C 142.167,381 153.833,394 165.5,407C 205.482,443.054 252.482,460.887 306.5,460.5C 346.059,460.48 382.392,449.647 415.5,428C 439.039,410.128 459.539,389.294 477,365.5C 516.014,296.527 517.347,226.861 481,156.5C 436.701,84.927 372.201,51.0937 287.5,55C 215.224,62.0337 161.058,96.867 125,159.5C 117.931,172.137 112.097,185.304 107.5,199C 107.833,199.5 108.167,200 108.5,200.5C 119.838,193.162 131.505,186.329 143.5,180C 162.522,177.012 173.855,185.012 177.5,204C 175.907,211.261 172.241,217.261 166.5,222C 141.933,241.228 116.267,258.895 89.5,275C 80.241,281.559 70.9076,281.893 61.5,276C 57.6311,272.466 54.1311,268.633 51,264.5C 32.2978,238.418 15.1311,211.418 -0.5,183.5C -0.5,178.5 -0.5,173.5 -0.5,168.5C 8.09698,152.69 20.4303,148.857 36.5,157C 45.1936,165.021 52.3602,174.187 58,184.5C 94.2774,80.043 166.777,18.3764 275.5,-0.5 Z"/></g>
<g><path style="opacity:0.984" fill="#333333" d="M 296.5,113.5 C 311.212,112.049 320.712,118.382 325,132.5C 325.854,142.816 326.354,153.149 326.5,163.5C 325.498,190.495 325.331,217.495 326,244.5C 349.094,266.591 371.094,289.591 392,313.5C 399.473,329.432 395.306,341.598 379.5,350C 370.276,351.61 361.943,349.61 354.5,344C 328.333,319.167 302.833,293.667 278,267.5C 277.135,219.807 277.802,172.14 280,124.5C 284.654,119.433 290.154,115.766 296.5,113.5 Z"/></g>
</svg>
