<?xml version="1.0" encoding="UTF-8"?>
<!DOCTYPE svg PUBLIC "-//W3C//DTD SVG 1.1//EN" "http://www.w3.org/Graphics/SVG/1.1/DTD/svg11.dtd">
<svg xmlns="http://www.w3.org/2000/svg" version="1.1" width="512px" height="512px" style="shape-rendering:geometricPrecision; text-rendering:geometricPrecision; image-rendering:optimizeQuality; fill-rule:evenodd; clip-rule:evenodd" xmlns:xlink="http://www.w3.org/1999/xlink">
<g><path style="opacity:0.997" fill="#0065cc" d="M 233.5,-0.5 C 248.167,-0.5 262.833,-0.5 277.5,-0.5C 377.769,12.0418 449.269,64.0418 492,155.5C 502.296,180.684 508.796,206.684 511.5,233.5C 511.5,248.167 511.5,262.833 511.5,277.5C 498.958,377.769 446.958,449.269 355.5,492C 330.316,502.296 304.316,508.796 277.5,511.5C 262.833,511.5 248.167,511.5 233.5,511.5C 133.231,498.958 61.7312,446.958 19,355.5C 8.70393,330.316 2.20393,304.316 -0.5,277.5C -0.5,262.833 -0.5,248.167 -0.5,233.5C 12.0418,133.231 64.0418,61.7312 155.5,19C 180.684,8.70393 206.684,2.20393 233.5,-0.5 Z"/></g>
<g><path style="opacity:1" fill="#f7f8f9" d="M 191.5,263.5 C 184.352,262.508 177.019,262.175 169.5,262.5C 169.5,254.833 169.5,247.167 169.5,239.5C 177.019,239.825 184.352,239.492 191.5,238.5C 191.5,205.833 191.5,173.167 191.5,140.5C 218.502,140.333 245.502,140.5 272.5,141C 334.853,150.167 365.519,186.334 364.5,249.5C 363.989,314.842 331.322,351.342 266.5,359C 241.502,359.5 216.502,359.667 191.5,359.5C 191.5,327.5 191.5,295.5 191.5,263.5 Z"/></g>
<g><path style="opacity:1" fill="#74a9e1" d="M 219.5,164.5 C 219.5,189.167 219.5,213.833 219.5,238.5C 237.674,238.17 255.674,238.503 273.5,239.5C 255.167,239.5 236.833,239.5 218.5,239.5C 218.169,214.328 218.502,189.328 219.5,164.5 Z"/></g>
<g><path style="opacity:1" fill="#0165cc" d="M 219.5,164.5 C 314.466,155.139 350.966,196.806 329,289.5C 318.348,315.133 299.181,329.967 271.5,334C 254.195,335.32 236.861,335.82 219.5,335.5C 219.5,311.5 219.5,287.5 219.5,263.5C 237.5,263.5 255.5,263.5 273.5,263.5C 273.5,255.5 273.5,247.5 273.5,239.5C 255.674,238.503 237.674,238.17 219.5,238.5C 219.5,213.833 219.5,189.167 219.5,164.5 Z"/></g>
<g><path style="opacity:1" fill="#95bce7" d="M 191.5,238.5 C 184.352,239.492 177.019,239.825 169.5,239.5C 169.5,247.167 169.5,254.833 169.5,262.5C 177.019,262.175 184.352,262.508 191.5,263.5C 183.833,263.5 176.167,263.5 168.5,263.5C 168.5,255.167 168.5,246.833 168.5,238.5C 176.167,238.5 183.833,238.5 191.5,238.5 Z"/></g>
</svg>
