<?xml version="1.0" encoding="UTF-8"?>
<!DOCTYPE svg PUBLIC "-//W3C//DTD SVG 1.1//EN" "http://www.w3.org/Graphics/SVG/1.1/DTD/svg11.dtd">
<svg xmlns="http://www.w3.org/2000/svg" version="1.1" width="512px" height="512px" style="shape-rendering:geometricPrecision; text-rendering:geometricPrecision; image-rendering:optimizeQuality; fill-rule:evenodd; clip-rule:evenodd" xmlns:xlink="http://www.w3.org/1999/xlink">
<g><path style="opacity:0.97" fill="#000000" d="M 388.5,31.5 C 394.638,30.7321 400.305,31.8988 405.5,35C 429,58.5 452.5,82 476,105.5C 480.667,112.833 480.667,120.167 476,127.5C 464.319,139.348 452.486,151.014 440.5,162.5C 409.5,132.167 378.833,101.5 348.5,70.5C 361.269,56.7281 374.603,43.7281 388.5,31.5 Z"/></g>
<g><path style="opacity:0.991" fill="#000000" d="M 325.5,92.5 C 357.249,122.748 388.583,153.581 419.5,185C 333.5,271 247.5,357 161.5,443C 125.282,455.739 88.9491,468.072 52.5,480C 37.5755,481.143 30.4089,474.31 31,459.5C 42.9384,423.018 55.2717,386.685 68,350.5C 154.035,264.632 239.868,178.632 325.5,92.5 Z"/></g>
</svg>
