<?xml version="1.0" encoding="UTF-8"?>
<!DOCTYPE svg PUBLIC "-//W3C//DTD SVG 1.1//EN" "http://www.w3.org/Graphics/SVG/1.1/DTD/svg11.dtd">
<svg xmlns="http://www.w3.org/2000/svg" version="1.1" width="512px" height="512px" style="shape-rendering:geometricPrecision; text-rendering:geometricPrecision; image-rendering:optimizeQuality; fill-rule:evenodd; clip-rule:evenodd" xmlns:xlink="http://www.w3.org/1999/xlink">
<g><path style="opacity:0.988" fill="#000000" d="M 246.5,35.5 C 297.019,34.2326 333.186,56.2326 355,101.5C 359.554,112.382 362.22,123.716 363,135.5C 363.167,157.841 363.667,180.174 364.5,202.5C 390.893,204.78 408.393,218.447 417,243.5C 418.648,305.797 418.981,368.13 418,430.5C 412.177,455.989 396.344,470.822 370.5,475C 293.833,475.667 217.167,475.667 140.5,475C 122.344,472.184 108.511,463.017 99,447.5C 96.9409,443.323 95.2742,438.99 94,434.5C 92.3482,372.545 92.0149,310.545 93,248.5C 99.8624,220.475 117.696,205.141 146.5,202.5C 147.079,177.146 147.912,151.812 149,126.5C 157.45,83.0511 182.617,54.2178 224.5,40C 231.882,38.0241 239.216,36.5241 246.5,35.5 Z M 244.5,73.5 C 288.038,71.3311 314.872,91.3311 325,133.5C 325.5,156.498 325.667,179.498 325.5,202.5C 278.833,202.5 232.167,202.5 185.5,202.5C 185.333,179.498 185.5,156.498 186,133.5C 192.575,100.76 212.075,80.7596 244.5,73.5 Z M 250.5,281.5 C 274.795,281.464 288.461,293.464 291.5,317.5C 290.868,330.764 285.035,341.097 274,348.5C 273.918,360.89 273.251,373.223 272,385.5C 265.373,397.054 256.206,399.554 244.5,393C 242.3,390.766 240.467,388.266 239,385.5C 237.749,373.223 237.082,360.89 237,348.5C 217.922,333.847 214.588,316.18 227,295.5C 233.319,288.098 241.153,283.431 250.5,281.5 Z"/></g>
</svg>
