<?xml version="1.0" encoding="UTF-8"?>
<!DOCTYPE svg PUBLIC "-//W3C//DTD SVG 1.1//EN" "http://www.w3.org/Graphics/SVG/1.1/DTD/svg11.dtd">
<svg xmlns="http://www.w3.org/2000/svg" version="1.1" width="512px" height="512px" style="shape-rendering:geometricPrecision; text-rendering:geometricPrecision; image-rendering:optimizeQuality; fill-rule:evenodd; clip-rule:evenodd" xmlns:xlink="http://www.w3.org/1999/xlink">
<g><path style="opacity:0.983" fill="#000000" d="M 238.5,111.5 C 340.1,108.879 419.266,149.213 476,232.5C 481.126,239.42 484.626,247.087 486.5,255.5C 484.626,263.913 481.126,271.58 476,278.5C 419.293,361.94 340.126,402.106 238.5,399C 149.716,390.886 81.2157,349.719 33,275.5C 28.7891,269.412 25.9557,262.746 24.5,255.5C 25.9557,248.254 28.7891,241.588 33,235.5C 81.4211,161.354 149.921,120.02 238.5,111.5 Z M 244.5,153.5 C 287.742,151.368 320.908,168.368 344,204.5C 366.535,250.088 360.702,291.588 326.5,329C 289.261,361.033 248.594,366.033 204.5,344C 162.73,316.394 146.897,277.894 157,228.5C 171.276,186.052 200.443,161.052 244.5,153.5 Z"/></g>
<g><path style="opacity:0.983" fill="#000000" d="M 243.5,186.5 C 273.121,183.403 296.621,193.736 314,217.5C 326.444,239.803 327.777,262.803 318,286.5C 300.196,317.12 273.696,329.287 238.5,323C 210.256,314.757 193.089,296.257 187,267.5C 183.626,224.892 202.459,197.892 243.5,186.5 Z"/></g>
</svg>
