<?xml version="1.0" encoding="UTF-8"?>
<!DOCTYPE svg PUBLIC "-//W3C//DTD SVG 1.1//EN" "http://www.w3.org/Graphics/SVG/1.1/DTD/svg11.dtd">
<svg xmlns="http://www.w3.org/2000/svg" version="1.1" width="512px" height="512px" style="shape-rendering:geometricPrecision; text-rendering:geometricPrecision; image-rendering:optimizeQuality; fill-rule:evenodd; clip-rule:evenodd" xmlns:xlink="http://www.w3.org/1999/xlink">
<g><path style="opacity:0.984" fill="#000000" d="M 249.5,41.5 C 261.236,40.9619 272.569,42.7952 283.5,47C 327.5,69.6667 371.5,92.3333 415.5,115C 419.647,117.98 423.314,121.48 426.5,125.5C 369.407,153.88 312.407,182.547 255.5,211.5C 198.904,182.035 141.904,153.368 84.5,125.5C 88.7638,120.74 93.7638,116.907 99.5,114C 144.375,90.7293 189.375,67.7293 234.5,45C 239.596,43.6404 244.596,42.4737 249.5,41.5 Z"/></g>
<g><path style="opacity:0.987" fill="#000000" d="M 63.5,161.5 C 121.178,189.422 178.678,217.756 236,246.5C 236.5,318.499 236.667,390.499 236.5,462.5C 233.813,462.664 231.146,462.497 228.5,462C 182.815,437.49 136.815,413.49 90.5,390C 76.2451,379.663 67.4118,365.83 64,348.5C 63.5,286.168 63.3333,223.834 63.5,161.5 Z M 121.5,287.5 C 124.85,287.335 128.183,287.502 131.5,288C 148.833,296.667 166.167,305.333 183.5,314C 190.963,321.35 192.463,329.85 188,339.5C 181.398,347.878 172.898,350.711 162.5,348C 146.5,340 130.5,332 114.5,324C 101.863,308.853 104.197,296.686 121.5,287.5 Z"/></g>
<g><path style="opacity:0.991" fill="#000000" d="M 445.5,161.5 C 446.833,192.326 447.5,223.493 447.5,255C 447.333,286.167 447.167,317.333 447,348.5C 443.131,369.354 431.964,384.854 413.5,395C 370.343,417.078 327.343,439.412 284.5,462C 281.854,462.497 279.187,462.664 276.5,462.5C 276.333,390.499 276.5,318.499 277,246.5C 333.305,218.264 389.472,189.931 445.5,161.5 Z"/></g>
</svg>
