<?xml version="1.0" encoding="UTF-8"?>
<!DOCTYPE svg PUBLIC "-//W3C//DTD SVG 1.1//EN" "http://www.w3.org/Graphics/SVG/1.1/DTD/svg11.dtd">
<svg xmlns="http://www.w3.org/2000/svg" version="1.1" width="512px" height="512px" style="shape-rendering:geometricPrecision; text-rendering:geometricPrecision; image-rendering:optimizeQuality; fill-rule:evenodd; clip-rule:evenodd" xmlns:xlink="http://www.w3.org/1999/xlink">
<g><path style="opacity:0.993" fill="#000000" d="M 511.5,110.5 C 511.5,115.5 511.5,120.5 511.5,125.5C 498.214,190.09 484.714,254.757 471,319.5C 459.887,343.645 441.054,356.812 414.5,359C 329.807,359.981 245.14,359.648 160.5,358C 135.291,351.792 118.791,336.292 111,311.5C 98.5734,228.181 86.2401,144.847 74,61.5C 73.1667,60.6667 72.3333,59.8333 71.5,59C 52.7899,58.9341 34.1232,58.2675 15.5,57C 7.64982,54.315 2.31649,49.1483 -0.5,41.5C -0.5,37.1667 -0.5,32.8333 -0.5,28.5C 1.98551,19.8493 7.65218,14.3493 16.5,12C 36.8333,11.3333 57.1667,11.3333 77.5,12C 102.224,17.3904 116.724,32.5571 121,57.5C 122.881,69.8368 124.715,82.1701 126.5,94.5C 249.167,94.3333 371.834,94.5 494.5,95C 502.944,97.2832 508.611,102.45 511.5,110.5 Z"/></g>
<g><path style="opacity:0.981" fill="#000000" d="M 178.5,379.5 C 207.821,379.894 227.988,393.561 239,420.5C 247.3,455.313 235.467,480.479 203.5,496C 168.916,504.956 143.749,493.456 128,461.5C 118.048,426.313 129.215,400.48 161.5,384C 167.175,382 172.842,380.5 178.5,379.5 Z"/></g>
<g><path style="opacity:0.98" fill="#000000" d="M 380.5,379.5 C 418.259,379.114 440.425,397.447 447,434.5C 447.327,469.5 430.494,491 396.5,499C 364.197,501.94 342.031,488.44 330,458.5C 321.978,424.389 333.478,399.556 364.5,384C 369.874,382.16 375.207,380.66 380.5,379.5 Z"/></g>
</svg>
