<?xml version="1.0" encoding="UTF-8"?>
<!DOCTYPE svg PUBLIC "-//W3C//DTD SVG 1.1//EN" "http://www.w3.org/Graphics/SVG/1.1/DTD/svg11.dtd">
<svg xmlns="http://www.w3.org/2000/svg" version="1.1" width="512px" height="512px" style="shape-rendering:geometricPrecision; text-rendering:geometricPrecision; image-rendering:optimizeQuality; fill-rule:evenodd; clip-rule:evenodd" xmlns:xlink="http://www.w3.org/1999/xlink">
<g><path style="opacity:0.989" fill="#000000" d="M 89.5,-0.5 C 96.5,-0.5 103.5,-0.5 110.5,-0.5C 119.567,2.03348 127.9,6.20015 135.5,12C 162.392,38.2243 188.559,65.0577 214,92.5C 226.353,116.055 223.186,137.222 204.5,156C 196.167,160.896 187.5,165.229 178.5,169C 157.195,185.172 151.695,205.672 162,230.5C 186.5,284.333 225.667,323.5 279.5,348C 305.486,357.718 326.652,351.551 343,329.5C 351.497,299.999 370.997,286.832 401.5,290C 410.606,291.886 418.606,295.886 425.5,302C 451.695,327.861 477.528,354.028 503,380.5C 507.358,387.754 510.191,395.421 511.5,403.5C 511.5,407.167 511.5,410.833 511.5,414.5C 509.976,425.22 505.809,434.886 499,443.5C 481.167,461.333 463.333,479.167 445.5,497C 434.917,504.63 423.25,509.464 410.5,511.5C 400.5,511.5 390.5,511.5 380.5,511.5C 351.588,506.474 323.921,497.307 297.5,484C 233.871,450.071 177.371,406.571 128,353.5C 87.3726,310.585 53.3726,262.919 26,210.5C 12.5892,183.11 3.7559,154.444 -0.5,124.5C -0.5,117.5 -0.5,110.5 -0.5,103.5C 0.845801,89.3058 5.67913,76.3058 14,64.5C 32.1667,46.3333 50.3333,28.1667 68.5,10C 75.045,5.39414 82.045,1.89414 89.5,-0.5 Z"/></g>
</svg>
