<?xml version="1.0" encoding="UTF-8"?>
<!DOCTYPE svg PUBLIC "-//W3C//DTD SVG 1.1//EN" "http://www.w3.org/Graphics/SVG/1.1/DTD/svg11.dtd">
<svg xmlns="http://www.w3.org/2000/svg" version="1.1" width="512px" height="512px" style="shape-rendering:geometricPrecision; text-rendering:geometricPrecision; image-rendering:optimizeQuality; fill-rule:evenodd; clip-rule:evenodd" xmlns:xlink="http://www.w3.org/1999/xlink">
<g><path style="opacity:0.991" fill="#000000" d="M 239.5,-0.5 C 250.167,-0.5 260.833,-0.5 271.5,-0.5C 326.431,8.92592 363.264,39.9259 382,92.5C 395.69,145.922 382.857,191.755 343.5,230C 303.517,262.595 258.851,270.928 209.5,255C 159.465,233.954 130.965,196.454 124,142.5C 121.352,88.9625 142.185,47.4625 186.5,18C 203.079,8.3089 220.746,2.14224 239.5,-0.5 Z"/></g>
<g><path style="opacity:0.995" fill="#000000" d="M 434.5,511.5 C 315.167,511.5 195.833,511.5 76.5,511.5C 46.3751,503.019 30.0418,483.019 27.5,451.5C 30.9426,387.396 61.6092,341.896 119.5,315C 132.356,309.786 145.689,306.453 159.5,305C 223.5,304.333 287.5,304.333 351.5,305C 410.446,313.71 451.279,345.543 474,400.5C 482.774,423.682 484.774,447.349 480,471.5C 471.512,492.491 456.345,505.825 434.5,511.5 Z"/></g>
</svg>
