<?xml version="1.0" encoding="UTF-8"?>
<!DOCTYPE svg PUBLIC "-//W3C//DTD SVG 1.1//EN" "http://www.w3.org/Graphics/SVG/1.1/DTD/svg11.dtd">
<svg xmlns="http://www.w3.org/2000/svg" version="1.1" width="512px" height="512px" style="shape-rendering:geometricPrecision; text-rendering:geometricPrecision; image-rendering:optimizeQuality; fill-rule:evenodd; clip-rule:evenodd" xmlns:xlink="http://www.w3.org/1999/xlink">
<g><path style="opacity:0.97" fill="#000000" d="M 345.5,31.5 C 376.168,31.3334 406.835,31.5 437.5,32C 442,33.8333 445.167,37 447,41.5C 447.667,72.1667 447.667,102.833 447,133.5C 442.527,142.482 435.36,145.649 425.5,143C 421,141.167 417.833,138 416,133.5C 415.667,118.833 415.333,104.167 415,89.5C 326.066,180.239 219.566,240.906 95.5,271.5C 82.2226,269.958 77.0559,262.625 80,249.5C 81.0608,246.438 82.8941,243.938 85.5,242C 186.037,215.741 275.37,169.074 353.5,102C 366.858,89.6414 379.858,76.9747 392.5,64C 376.833,63.6667 361.167,63.3333 345.5,63C 336.518,58.5269 333.351,51.3603 336,41.5C 338.022,36.98 341.189,33.6467 345.5,31.5 Z"/></g>
<g><path style="opacity:0.997" fill="#000000" d="M 375.5,207.5 C 402.169,207.333 428.835,207.5 455.5,208C 468,211.167 475.833,219 479,231.5C 479.667,306.167 479.667,380.833 479,455.5C 475.833,468 468,475.833 455.5,479C 428.833,479.667 402.167,479.667 375.5,479C 363,475.833 355.167,468 352,455.5C 351.333,380.833 351.333,306.167 352,231.5C 355.349,218.985 363.182,210.985 375.5,207.5 Z"/></g>
<g><path style="opacity:0.995" fill="#000000" d="M 215.5,287.5 C 242.169,287.333 268.835,287.5 295.5,288C 308,291.167 315.833,299 319,311.5C 319.667,359.5 319.667,407.5 319,455.5C 315.833,468 308,475.833 295.5,479C 268.833,479.667 242.167,479.667 215.5,479C 203,475.833 195.167,468 192,455.5C 191.333,407.5 191.333,359.5 192,311.5C 195.349,298.985 203.182,290.985 215.5,287.5 Z"/></g>
<g><path style="opacity:0.994" fill="#000000" d="M 55.5,335.5 C 82.1687,335.333 108.835,335.5 135.5,336C 148,339.167 155.833,347 159,359.5C 159.667,391.5 159.667,423.5 159,455.5C 155.833,468 148,475.833 135.5,479C 108.833,479.667 82.1667,479.667 55.5,479C 43,475.833 35.1667,468 32,455.5C 31.3333,423.5 31.3333,391.5 32,359.5C 35.349,346.985 43.1824,338.985 55.5,335.5 Z"/></g>
</svg>
