<?xml version="1.0" encoding="UTF-8"?>
<!DOCTYPE svg PUBLIC "-//W3C//DTD SVG 1.1//EN" "http://www.w3.org/Graphics/SVG/1.1/DTD/svg11.dtd">
<svg xmlns="http://www.w3.org/2000/svg" version="1.1" width="512px" height="512px" style="shape-rendering:geometricPrecision; text-rendering:geometricPrecision; image-rendering:optimizeQuality; fill-rule:evenodd; clip-rule:evenodd" xmlns:xlink="http://www.w3.org/1999/xlink">
<g><path style="opacity:0.992" fill="#000000" d="M 252.5,42.5 C 276.622,42.4547 287.788,54.4547 286,78.5C 286.36,80.6079 287.027,82.6079 288,84.5C 306.655,90.5768 323.822,99.4101 339.5,111C 362.402,129.637 374.569,153.804 376,183.5C 376.333,215.5 376.667,247.5 377,279.5C 378.149,289.292 381.815,297.959 388,305.5C 398.185,313.595 408.185,321.928 418,330.5C 426.77,342.816 428.77,356.149 424,370.5C 420.777,376.723 415.943,381.223 409.5,384C 308.223,385.66 206.89,385.993 105.5,385C 91.6652,380.472 84.6652,370.805 84.5,356C 85.401,342.531 91.0676,331.531 101.5,323C 110.499,317.238 118.666,310.405 126,302.5C 131.391,294.328 134.391,285.328 135,275.5C 135.333,242.5 135.667,209.5 136,176.5C 140.482,143.028 157.315,117.861 186.5,101C 197.586,94.6229 209.253,89.6229 221.5,86C 223.049,84.786 224.215,83.286 225,81.5C 226.045,74.8747 226.711,68.208 227,61.5C 231.825,50.1765 240.325,43.8431 252.5,42.5 Z"/></g>
<g><path style="opacity:0.967" fill="#000000" d="M 196.5,411.5 C 236.167,411.5 275.833,411.5 315.5,411.5C 313.087,441.09 297.42,459.59 268.5,467C 237.588,471.399 214.755,459.899 200,432.5C 197.35,425.747 196.183,418.747 196.5,411.5 Z"/></g>
</svg>
