<?xml version="1.0" encoding="UTF-8"?>
<!DOCTYPE svg PUBLIC "-//W3C//DTD SVG 1.1//EN" "http://www.w3.org/Graphics/SVG/1.1/DTD/svg11.dtd">
<svg xmlns="http://www.w3.org/2000/svg" version="1.1" width="512px" height="512px" style="shape-rendering:geometricPrecision; text-rendering:geometricPrecision; image-rendering:optimizeQuality; fill-rule:evenodd; clip-rule:evenodd" xmlns:xlink="http://www.w3.org/1999/xlink">
<g><path style="opacity:0.991" fill="#000000" d="M 235.5,-0.5 C 248.833,-0.5 262.167,-0.5 275.5,-0.5C 354.919,10.7944 410.085,53.4611 441,127.5C 457.448,170.21 457.448,212.877 441,255.5C 424.228,296.718 403.561,335.718 379,372.5C 349.148,417.689 316.981,461.189 282.5,503C 276.792,506.69 270.792,509.523 264.5,511.5C 258.5,511.5 252.5,511.5 246.5,511.5C 239.712,509.439 233.378,506.273 227.5,502C 173.287,437.085 126.12,367.251 86,292.5C 74.5136,269.525 65.8469,245.525 60,220.5C 52.6394,146.887 77.4728,86.7199 134.5,40C 164.595,17.5796 198.262,4.07963 235.5,-0.5 Z M 245.5,122.5 C 283.768,120.636 309.268,137.636 322,173.5C 328.381,202.023 320.548,225.856 298.5,245C 269.833,265.667 241.167,265.667 212.5,245C 185.182,219.591 179.682,190.091 196,156.5C 207.666,138.087 224.166,126.754 245.5,122.5 Z"/></g>
</svg>
