<?xml version="1.0" encoding="UTF-8"?>
<!DOCTYPE svg PUBLIC "-//W3C//DTD SVG 1.1//EN" "http://www.w3.org/Graphics/SVG/1.1/DTD/svg11.dtd">
<svg xmlns="http://www.w3.org/2000/svg" version="1.1" width="512px" height="512px" style="shape-rendering:geometricPrecision; text-rendering:geometricPrecision; image-rendering:optimizeQuality; fill-rule:evenodd; clip-rule:evenodd" xmlns:xlink="http://www.w3.org/1999/xlink">
<g><path style="opacity:0.998" fill="#000000" d="M 511.5,124.5 C 511.5,138.167 511.5,151.833 511.5,165.5C 510.711,165.783 510.044,166.283 509.5,167C 340.167,167.667 170.833,167.667 1.5,167C 0.955796,166.283 0.28913,165.783 -0.5,165.5C -0.5,151.833 -0.5,138.167 -0.5,124.5C 5.31951,100.514 20.3195,85.681 44.5,80C 185.167,79.3333 325.833,79.3333 466.5,80C 490.68,85.681 505.68,100.514 511.5,124.5 Z"/></g>
<g><path style="opacity:0.999" fill="#000000" d="M 511.5,201.5 C 511.5,263.167 511.5,324.833 511.5,386.5C 505.68,410.486 490.68,425.319 466.5,431C 325.833,431.667 185.167,431.667 44.5,431C 20.2929,425.292 5.29289,410.459 -0.5,386.5C -0.5,324.833 -0.5,263.167 -0.5,201.5C 0.28913,201.217 0.955796,200.717 1.5,200C 170.833,199.333 340.167,199.333 509.5,200C 510.044,200.717 510.711,201.217 511.5,201.5 Z M 95.5,303.5 C 120.654,299.82 131.154,310.487 127,335.5C 125.833,344.667 120.667,349.833 111.5,351C 102.845,352.274 94.5115,351.274 86.5,348C 82.618,344.736 80.4513,340.57 80,335.5C 79.2119,328.444 79.5452,321.444 81,314.5C 83.8214,308.023 88.6547,304.356 95.5,303.5 Z"/></g>
</svg>
