<?xml version="1.0" encoding="UTF-8"?>
<!DOCTYPE svg PUBLIC "-//W3C//DTD SVG 1.1//EN" "http://www.w3.org/Graphics/SVG/1.1/DTD/svg11.dtd">
<svg xmlns="http://www.w3.org/2000/svg" version="1.1" width="512px" height="512px" style="shape-rendering:geometricPrecision; text-rendering:geometricPrecision; image-rendering:optimizeQuality; fill-rule:evenodd; clip-rule:evenodd" xmlns:xlink="http://www.w3.org/1999/xlink">
<g><path style="opacity:0.968" fill="#000000" d="M 249.5,-0.5 C 253.5,-0.5 257.5,-0.5 261.5,-0.5C 299.412,12.4713 337.412,25.4713 375.5,38.5C 335.682,52.5508 295.682,66.2174 255.5,79.5C 215.318,66.2174 175.318,52.5508 135.5,38.5C 173.588,25.4713 211.588,12.4713 249.5,-0.5 Z"/></g>
<g><path style="opacity:0.993" fill="#000000" d="M 135.5,69.5 C 170.138,81.1574 204.805,92.824 239.5,104.5C 240.5,157.496 240.833,210.496 240.5,263.5C 205.5,252.167 170.5,240.833 135.5,229.5C 135.5,176.167 135.5,122.833 135.5,69.5 Z"/></g>
<g><path style="opacity:0.993" fill="#000000" d="M 374.5,69.5 C 375.499,122.664 375.832,175.997 375.5,229.5C 340.5,240.833 305.5,252.167 270.5,263.5C 270.167,210.496 270.5,157.496 271.5,104.5C 306.005,92.9989 340.339,81.3322 374.5,69.5 Z"/></g>
<g><path style="opacity:0.976" fill="#000000" d="M 117.5,249.5 C 119.527,249.338 121.527,249.505 123.5,250C 162.621,262.873 201.621,276.04 240.5,289.5C 201.621,302.96 162.621,316.127 123.5,329C 121.5,329.667 119.5,329.667 117.5,329C 78.3793,316.127 39.3793,302.96 0.5,289.5C 39.5883,276.138 78.5883,262.805 117.5,249.5 Z"/></g>
<g><path style="opacity:0.976" fill="#000000" d="M 387.5,249.5 C 389.527,249.338 391.527,249.505 393.5,250C 432.621,262.873 471.621,276.04 510.5,289.5C 471.621,302.96 432.621,316.127 393.5,329C 391.5,329.667 389.5,329.667 387.5,329C 348.379,316.127 309.379,302.96 270.5,289.5C 309.588,276.138 348.588,262.805 387.5,249.5 Z"/></g>
<g><path style="opacity:0.991" fill="#000000" d="M 105.5,511.5 C 104.5,511.5 103.5,511.5 102.5,511.5C 71.709,500.736 40.709,490.236 9.5,480C 5.33333,478.5 2.5,475.667 1,471.5C 0.166711,421.163 0.333377,370.83 1.5,320.5C 36.0536,332.073 70.5536,343.74 105,355.5C 105.5,407.499 105.667,459.499 105.5,511.5 Z"/></g>
<g><path style="opacity:0.994" fill="#000000" d="M 138.5,511.5 C 137.5,511.5 136.5,511.5 135.5,511.5C 135.167,459.496 135.5,407.496 136.5,355.5C 170.908,344.031 205.241,332.364 239.5,320.5C 240.5,372.829 240.833,425.162 240.5,477.5C 206.216,488.261 172.216,499.595 138.5,511.5 Z"/></g>
<g><path style="opacity:0.992" fill="#000000" d="M 375.5,511.5 C 374.5,511.5 373.5,511.5 372.5,511.5C 338.784,499.595 304.784,488.261 270.5,477.5C 270.167,425.162 270.5,372.829 271.5,320.5C 306.054,332.073 340.554,343.74 375,355.5C 375.5,407.499 375.667,459.499 375.5,511.5 Z"/></g>
<g><path style="opacity:0.993" fill="#000000" d="M 408.5,511.5 C 407.5,511.5 406.5,511.5 405.5,511.5C 405.167,459.496 405.5,407.496 406.5,355.5C 440.908,344.031 475.241,332.364 509.5,320.5C 510.667,370.83 510.833,421.163 510,471.5C 508.5,475.667 505.667,478.5 501.5,480C 470.291,490.236 439.291,500.736 408.5,511.5 Z"/></g>
</svg>
