<?xml version="1.0" encoding="UTF-8"?>
<!DOCTYPE svg PUBLIC "-//W3C//DTD SVG 1.1//EN" "http://www.w3.org/Graphics/SVG/1.1/DTD/svg11.dtd">
<svg xmlns="http://www.w3.org/2000/svg" version="1.1" width="512px" height="512px" style="shape-rendering:geometricPrecision; text-rendering:geometricPrecision; image-rendering:optimizeQuality; fill-rule:evenodd; clip-rule:evenodd" xmlns:xlink="http://www.w3.org/1999/xlink">
<g><path style="opacity:0.987" fill="#000000" d="M 232.5,-0.5 C 247.833,-0.5 263.167,-0.5 278.5,-0.5C 368.144,10.3879 435.644,54.7213 481,132.5C 497.695,163.971 507.861,197.304 511.5,232.5C 511.5,247.833 511.5,263.167 511.5,278.5C 500.612,368.144 456.279,435.644 378.5,481C 347.029,497.695 313.696,507.861 278.5,511.5C 263.167,511.5 247.833,511.5 232.5,511.5C 142.856,500.612 75.3562,456.279 30,378.5C 13.3053,347.029 3.1386,313.696 -0.5,278.5C -0.5,263.167 -0.5,247.833 -0.5,232.5C 10.3875,142.857 54.7208,75.3573 132.5,30C 163.971,13.3053 197.304,3.1386 232.5,-0.5 Z M 254.5,77.5 C 302.263,80.7717 332.43,105.438 345,151.5C 351.141,197.721 333.641,231.555 292.5,253C 250.295,268.562 214.129,259.728 184,226.5C 163.18,198.239 158.847,167.572 171,134.5C 187.879,99.4548 215.712,80.4548 254.5,77.5 Z M 163.5,267.5 C 168.599,267.175 173.599,267.675 178.5,269C 216.768,296.118 258.101,301.785 302.5,286C 313.773,280.368 324.773,274.368 335.5,268C 344.777,266.094 352.777,268.427 359.5,275C 388.453,299.389 406.786,330.222 414.5,367.5C 413.925,374.314 411.425,380.314 407,385.5C 353.857,442.992 288.69,464.492 211.5,450C 166.951,439.42 130.118,416.587 101,381.5C 96.4741,374.293 95.4741,366.626 98,358.5C 108.167,322.973 127.667,293.806 156.5,271C 158.925,269.787 161.259,268.621 163.5,267.5 Z"/></g>
</svg>
