<?xml version="1.0" encoding="UTF-8"?>
<!DOCTYPE svg PUBLIC "-//W3C//DTD SVG 1.1//EN" "http://www.w3.org/Graphics/SVG/1.1/DTD/svg11.dtd">
<svg xmlns="http://www.w3.org/2000/svg" version="1.1" width="512px" height="512px" style="shape-rendering:geometricPrecision; text-rendering:geometricPrecision; image-rendering:optimizeQuality; fill-rule:evenodd; clip-rule:evenodd" xmlns:xlink="http://www.w3.org/1999/xlink">
<g><path style="opacity:0.988" fill="#000000" d="M 137.5,41.5 C 168.835,41.3334 200.168,41.5 231.5,42C 234.539,43.0314 237.039,44.8647 239,47.5C 239.667,81.1667 239.667,114.833 239,148.5C 237.749,151.381 235.583,153.214 232.5,154C 174.5,154.667 116.5,154.667 58.5,154C 52.3974,150.96 50.2307,146.126 52,139.5C 58.6667,122.167 65.3333,104.833 72,87.5C 85.8253,60.6779 107.659,45.3446 137.5,41.5 Z"/></g>
<g><path style="opacity:0.983" fill="#000000" d="M 279.5,41.5 C 310.835,41.3334 342.168,41.5 373.5,42C 401.563,45.4149 422.729,59.2482 437,83.5C 444.725,102.009 452.059,120.675 459,139.5C 460.769,146.126 458.603,150.96 452.5,154C 394.5,154.667 336.5,154.667 278.5,154C 273.432,152.372 270.932,148.872 271,143.5C 270.333,113.167 270.333,82.8333 271,52.5C 271.8,47.207 274.633,43.5403 279.5,41.5 Z"/></g>
<g><path style="opacity:0.982" fill="#000000" d="M 49.5,185.5 C 186.834,185.333 324.167,185.5 461.5,186C 465.333,187.167 467.833,189.667 469,193.5C 469.667,261.167 469.667,328.833 469,396.5C 464.267,431.136 445.433,454.302 412.5,466C 406.925,467.515 401.258,468.515 395.5,469C 302.167,469.667 208.833,469.667 115.5,469C 80.4558,464.562 56.9558,445.729 45,412.5C 43.6145,407.239 42.6145,401.906 42,396.5C 41.3333,328.833 41.3333,261.167 42,193.5C 43.3532,189.65 45.8532,186.983 49.5,185.5 Z M 137.5,243.5 C 146.506,243.334 155.506,243.5 164.5,244C 172.871,247.909 176.037,254.409 174,263.5C 171.668,269.164 167.501,272.664 161.5,274C 154.833,274.333 148.167,274.667 141.5,275C 139,276.167 137.167,278 136,280.5C 135.333,301.167 135.333,321.833 136,342.5C 137.167,345 139,346.833 141.5,348C 148.167,348.333 154.833,348.667 161.5,349C 173.894,353.293 177.394,361.459 172,373.5C 170.062,376.106 167.562,377.939 164.5,379C 155.5,379.667 146.5,379.667 137.5,379C 119.549,374.716 108.716,363.549 105,345.5C 104.05,321.125 104.383,296.792 106,272.5C 111.289,257.04 121.789,247.373 137.5,243.5 Z M 232.5,243.5 C 261.301,241.16 279.468,253.827 287,281.5C 287.667,301.5 287.667,321.5 287,341.5C 279.49,369.325 261.324,381.825 232.5,379C 212.563,374.063 200.397,361.563 196,341.5C 195.333,321.5 195.333,301.5 196,281.5C 200.571,261.431 212.738,248.764 232.5,243.5 Z M 324.5,243.5 C 340.503,243.333 356.503,243.5 372.5,244C 390.783,248.616 401.949,260.116 406,278.5C 406.167,289.5 406.333,300.5 406.5,311.5C 406.616,324.212 406.116,336.878 405,349.5C 399.558,365.276 388.724,375.109 372.5,379C 356.5,379.667 340.5,379.667 324.5,379C 320,377.167 316.833,374 315,369.5C 314.333,330.833 314.333,292.167 315,253.5C 317.022,248.98 320.189,245.647 324.5,243.5 Z"/></g>
<g><path style="opacity:0.969" fill="#000000" d="M 236.5,274.5 C 245.587,272.959 252.087,276.293 256,284.5C 256.667,302.5 256.667,320.5 256,338.5C 250.705,348.723 242.872,351.223 232.5,346C 229.894,344.062 228.061,341.562 227,338.5C 226.333,320.5 226.333,302.5 227,284.5C 229.022,279.98 232.189,276.647 236.5,274.5 Z"/></g>
<g><path style="opacity:0.969" fill="#000000" d="M 351.5,274.5 C 357.509,274.334 363.509,274.501 369.5,275C 372.381,276.251 374.214,278.417 375,281.5C 375.667,301.5 375.667,321.5 375,341.5C 374.214,344.583 372.381,346.749 369.5,348C 363.5,348.667 357.5,348.667 351.5,348C 349,346.833 347.167,345 346,342.5C 345.333,321.833 345.333,301.167 346,280.5C 347.36,277.977 349.193,275.977 351.5,274.5 Z"/></g>
</svg>
