<?xml version="1.0" encoding="UTF-8"?>
<!DOCTYPE svg PUBLIC "-//W3C//DTD SVG 1.1//EN" "http://www.w3.org/Graphics/SVG/1.1/DTD/svg11.dtd">
<svg xmlns="http://www.w3.org/2000/svg" version="1.1" width="24px" height="24px" style="shape-rendering:geometricPrecision; text-rendering:geometricPrecision; image-rendering:optimizeQuality; fill-rule:evenodd; clip-rule:evenodd" xmlns:xlink="http://www.w3.org/1999/xlink">
<g><path style="opacity:0.766" fill="#333333" d="M 5.5,-0.5 C 8.5,-0.5 11.5,-0.5 14.5,-0.5C 17.5418,1.22405 19.3751,3.89071 20,7.5C 19.9565,10.5632 19.6232,13.5632 19,16.5C 20.3712,18.0414 21.8712,19.3747 23.5,20.5C 23.5,21.5 23.5,22.5 23.5,23.5C 22.5,23.5 21.5,23.5 20.5,23.5C 18.322,18.7457 14.822,17.4124 10,19.5C 4.85831,18.8445 1.35831,16.1779 -0.5,11.5C -0.5,10.1667 -0.5,8.83333 -0.5,7.5C 0.527658,4.11447 2.52766,1.4478 5.5,-0.5 Z M 7.5,2.5 C 14.7707,2.03574 17.604,5.36908 16,12.5C 13.4406,15.3492 10.2739,16.1825 6.5,15C 2.33394,10.3683 2.66728,6.20168 7.5,2.5 Z"/></g>
</svg>
