<?xml version="1.0" encoding="UTF-8"?>
<!DOCTYPE svg PUBLIC "-//W3C//DTD SVG 1.1//EN" "http://www.w3.org/Graphics/SVG/1.1/DTD/svg11.dtd">
<svg xmlns="http://www.w3.org/2000/svg" version="1.1" width="512px" height="512px" style="shape-rendering:geometricPrecision; text-rendering:geometricPrecision; image-rendering:optimizeQuality; fill-rule:evenodd; clip-rule:evenodd" xmlns:xlink="http://www.w3.org/1999/xlink">
<g><path style="opacity:0.988" fill="#000000" d="M 194.5,-0.5 C 235.167,-0.5 275.833,-0.5 316.5,-0.5C 324.041,2.54466 328.207,8.21133 329,16.5C 329.667,175.833 329.667,335.167 329,494.5C 328.207,502.789 324.041,508.455 316.5,511.5C 275.833,511.5 235.167,511.5 194.5,511.5C 186.959,508.455 182.793,502.789 182,494.5C 181.333,335.167 181.333,175.833 182,16.5C 182.78,8.24836 186.947,2.58169 194.5,-0.5 Z"/></g>
<g><path style="opacity:0.994" fill="#000000" d="M 511.5,158.5 C 511.5,272.167 511.5,385.833 511.5,499.5C 510.024,501.769 508.524,504.102 507,506.5C 504.521,508.314 502.021,509.981 499.5,511.5C 458.833,511.5 418.167,511.5 377.5,511.5C 370.649,508.809 366.482,503.809 365,496.5C 364.333,384.5 364.333,272.5 365,160.5C 366.395,152.772 370.895,147.938 378.5,146C 418.5,145.333 458.5,145.333 498.5,146C 504.685,148.353 509.018,152.52 511.5,158.5 Z"/></g>
<g><path style="opacity:0.994" fill="#000000" d="M 133.5,511.5 C 92.8333,511.5 52.1667,511.5 11.5,511.5C 9.23138,510.024 6.89805,508.524 4.5,507C 2.68589,504.521 1.01922,502.021 -0.5,499.5C -0.5,404.167 -0.5,308.833 -0.5,213.5C 1.98203,207.52 6.31536,203.353 12.5,201C 52.8333,200.333 93.1667,200.333 133.5,201C 138.935,202.769 142.768,206.269 145,211.5C 146.657,306.457 146.99,401.457 146,496.5C 144.518,503.809 140.351,508.809 133.5,511.5 Z"/></g>
</svg>
